<svg viewBox="0 0 24 24" xmlns="http://www.w3.org/2000/svg"><rect width="24" height="24" rx="6" fill="#EEDCFF"/><path d="M12 8.3a3.7 3.7 0 1 0 0 7.4 3.7 3.7 0 0 0 0-7.4Zm0 6a2.3 2.3 0 1 1 0-4.6 2.3 2.3 0 0 1 0 4.6ZM16.7 8a.9.9 0 1 1-1.8 0 .9.9 0 0 1 1.8 0Z" fill="#7A1FA2"/><path d="M7.2 3h9.6A4.2 4.2 0 0 1 21 7.2v9.6A4.2 4.2 0 0 1 16.8 21H7.2A4.2 4.2 0 0 1 3 16.8V7.2A4.2 4.2 0 0 1 7.2 3Zm0 1.8A2.4 2.4 0 0 0 4.8 7.2v9.6a2.4 2.4 0 0 0 2.4 2.4h9.6a2.4 2.4 0 0 0 2.4-2.4V7.2a2.4 2.4 0 0 0-2.4-2.4H7.2Z" fill="#7A1FA2"/></svg>